<?xml version="1.0" encoding="utf-8"?>
<!-- Generator: Adobe Illustrator 16.0.3, SVG Export Plug-In . SVG Version: 6.00 Build 0)  -->
<!DOCTYPE svg PUBLIC "-//W3C//DTD SVG 1.1//EN" "http://www.w3.org/Graphics/SVG/1.1/DTD/svg11.dtd">
<svg version="1.1" id="Warstwa_1" xmlns="http://www.w3.org/2000/svg" xmlns:xlink="http://www.w3.org/1999/xlink" x="0px" y="0px"
	 width="241px" height="94px" viewBox="0 0 241 94" enable-background="new 0 0 241 94" xml:space="preserve">
<g>
	<path fill="#E23F4A" d="M46.913,61.006l-9.232-21.529h18.465L46.913,61.006z M84.205,7L84.205,7L76.86,24.125
		c-1.879,4.381-6.188,7.222-10.956,7.222H25.348l16.67,38.874c0.454,1.059,0.913,1.617,1.219,1.9
		c1.002,0.928,2.307,1.439,3.676,1.439c1.368,0,2.674-0.512,3.676-1.439c0.306-0.283,0.765-0.842,1.218-1.9l13.185-30.744
		c1.94,0,3.818-0.264,5.605-0.748l-0.321,0.748L56.27,72.137c-0.633,1.477-1.434,2.67-2.38,3.547
		c-1.903,1.764-4.381,2.734-6.977,2.734c-2.596,0-5.074-0.971-6.978-2.734c-0.945-0.877-1.746-2.07-2.38-3.547L17.979,26.49h46.348
		c3.781,0,7.199-2.253,8.689-5.728l2.416-5.633C77.083,11.281,74.261,7,70.074,7l-4.515,10.528
		c-0.217,0.505-0.713,0.832-1.262,0.832H9.623c-1.881,0-3.15,1.924-2.408,3.653L30.083,75.34c1.014,2.365,2.438,4.555,4.325,6.305
		c3.282,3.043,7.675,4.902,12.505,4.902c4.829,0,9.223-1.859,12.505-4.902c1.887-1.75,3.31-3.939,4.325-6.305l25.821-60.21
		C91.214,11.281,88.392,7,84.205,7"/>
	<polygon fill="#FFFFFF" points="112.786,39.479 101.414,65.697 90.042,39.479 95.938,39.479 101.624,53.59 106.994,39.479 	"/>
	<path fill="#FFFFFF" d="M122.262,57.484c0.527,0.736,1.159,1.264,1.896,1.791c0.842,0.42,1.684,0.631,2.526,0.631
		c0.947,0,1.896-0.211,2.634-0.631c0.841-0.422,1.473-1.055,1.894-1.791c0.422-0.736,0.738-1.475,0.738-2.316V39.374h4.843v15.9
		c0,1.791-0.421,3.369-1.369,4.844c-0.946,1.473-2.104,2.527-3.684,3.369c-1.581,0.844-3.266,1.158-5.161,1.158
		s-3.58-0.422-5.054-1.158c-1.579-0.842-2.737-1.896-3.686-3.369c-0.948-1.475-1.369-3.053-1.369-4.844V39.479h4.949v15.794
		C121.525,56.01,121.841,56.854,122.262,57.484"/>
	<polygon fill="#FFFFFF" points="147.744,39.479 147.744,59.695 159.537,59.695 159.537,64.436 142.9,64.436 142.9,39.479 	"/>
	<path fill="#FFFFFF" d="M179.648,64.014c-1.369,0.525-2.844,0.736-4.527,0.736c-2.633,0-4.844-0.525-6.845-1.684
		c-1.896-1.158-3.369-2.633-4.422-4.529c-1.055-1.895-1.58-4.002-1.58-6.316c0-2.527,0.525-4.738,1.58-6.74
		c1.053-2.001,2.422-3.475,4.315-4.633c1.896-1.158,4.002-1.685,6.319-1.685c1.473,0,2.947,0.211,4.212,0.632
		c1.263,0.421,2.422,0.947,3.369,1.579l-1.896,4.634c-1.79-1.37-3.58-2.001-5.474-2.001c-1.264,0-2.422,0.316-3.58,1.053
		c-1.16,0.737-2.001,1.684-2.633,2.842s-0.947,2.527-0.947,4.002c0,1.58,0.315,3.053,0.947,4.211
		c0.632,1.16,1.473,2.107,2.633,2.844c1.158,0.633,2.421,1.053,4.001,1.053c1.263,0,2.315-0.211,3.263-0.631
		c0.949-0.422,1.79-0.844,2.317-1.369l2.001,4.422C182.07,62.959,181.017,63.486,179.648,64.014"/>
	<path fill="#FFFFFF" d="M198.392,55.484l-2.422-6.107l-2.526,6.107H198.392z M199.971,59.59h-8.317l-2.001,4.844h-4.844
		l11.268-26.008h0.314l11.268,26.008h-5.687L199.971,59.59z"/>
	<polygon fill="#FFFFFF" points="233.771,39.479 233.771,65.486 233.667,65.486 216.187,49.691 216.292,64.436 211.343,64.436 
		211.343,38.531 211.554,38.531 229.033,54.537 228.928,39.479 	"/>
</g>
</svg>
